<svg xmlns="http://www.w3.org/2000/svg" viewBox="0 0 340 120" role="img" aria-label="Salveo Homecare">
  <g transform="translate(4,8) scale(0.38)">
    <path fill="#FF8C42" d="M138.5 233.6c-15.5 0-28.1-12.6-28.1-28.1 0-6.5 4.4-16.3 12.9-29.1 3.2 2.2 4.2 6.6 2.2 9.9-5.1 8.5-7.9 15.2-7.9 19.2 0 11.5 9.4 20.9 20.9 20.9 11.6 0 20.9-9.4 20.9-20.9 0-8.8-15.4-28.7-25.2-39.1l5.3-4.9c2.8 3 27.1 29.5 27.1 44 0 15.5-12.6 28.1-28.1 28.1"/>
    <path fill="#FF8C42" d="M134.2 166.4c-2.8-3-27.1-29.5-27.1-44 0-15.5 12.6-28.1 28.1-28.1s28.1 12.6 28.1 28.1c0 6.9-4.9 17.6-14.5 31.5-3.3-2.2-4.2-6.6-2-10 6-9.6 9.3-17.1 9.3-21.5 0-11.6-9.4-20.9-20.9-20.9-11.6 0-20.9 9.3-20.9 20.9 0 8.8 15.4 28.6 25.2 39.1z"/>
    <path fill="#FF8C42" fill-rule="evenodd" d="M135.2 83.2c-12.9 0-23.3-10.5-23.3-23.3 0-12.9 10.4-23.3 23.3-23.3 12.8 0 23.2 10.4 23.2 23.3 0 12.8-10.4 23.3-23.2 23.3m0-39.4c-8.9 0-16.1 7.2-16.1 16.1S126.3 76 135.2 76c8.8 0 16-7.2 16-16.1s-7.2-16.1-16-16.1"/>
    <path fill="#FF8C42" fill-rule="evenodd" d="M136.8 263.8C65.9 263.8 8.2 206 8.2 135.1S65.9 6.5 136.8 6.5c71 0 128.7 57.7 128.7 128.6s-57.7 128.7-128.7 128.7m0-249.9C70 13.9 15.6 68.3 15.6 135.1c0 66.9 54.4 121.2 121.2 121.2 66.9 0 121.3-54.3 121.3-121.2 0-66.8-54.4-121.2-121.3-121.2"/>
  </g>
  <text x="120" y="52" fill="#FF914D" font-family="Inter, Helvetica Neue, Arial, sans-serif" font-size="38" font-weight="700">Salveo</text>
  <text x="120" y="92" fill="#FF914D" font-family="Inter, Helvetica Neue, Arial, sans-serif" font-size="30" font-weight="600">Homecare</text>
</svg>
